<mxfile host="app.diagrams.net" agent="Mozilla/5.0 (Macintosh; Intel Mac OS X 10_15_7) AppleWebKit/605.1.15 (KHTML, like Gecko) Version/18.4 Safari/605.1.15" version="27.0.6">
  <diagram name="Page-1" id="Xq1hIofhCXbODVmMwuih">
    <mxGraphModel dx="946" dy="584" grid="1" gridSize="10" guides="1" tooltips="1" connect="1" arrows="1" fold="1" page="1" pageScale="1" pageWidth="827" pageHeight="1169" math="0" shadow="0">
      <root>
        <mxCell id="0" />
        <mxCell id="1" parent="0" />
        <mxCell id="WXA7mOeNSCQX8dPOhU4I-1" value="" style="swimlane;startSize=0;align=left;fillStyle=hatch;" parent="1" vertex="1">
          <mxGeometry x="320" y="540" width="200" height="140" as="geometry" />
        </mxCell>
        <mxCell id="WXA7mOeNSCQX8dPOhU4I-2" value="&lt;font&gt;Business Logic&lt;/font&gt;" style="text;html=1;align=left;verticalAlign=middle;resizable=0;points=[];autosize=1;strokeColor=none;fillColor=none;fontSize=18;" parent="WXA7mOeNSCQX8dPOhU4I-1" vertex="1">
          <mxGeometry x="6" y="5" width="140" height="40" as="geometry" />
        </mxCell>
        <mxCell id="WXA7mOeNSCQX8dPOhU4I-47" value="&lt;font style=&quot;font-size: 12px;&quot;&gt;Business Logic&lt;/font&gt;&lt;div&gt;&lt;font style=&quot;font-size: 12px;&quot;&gt;Library&lt;/font&gt;&lt;/div&gt;" style="ellipse;whiteSpace=wrap;html=1;fillColor=none;" parent="WXA7mOeNSCQX8dPOhU4I-1" vertex="1">
          <mxGeometry x="40" y="45" width="120" height="80" as="geometry" />
        </mxCell>
        <mxCell id="WXA7mOeNSCQX8dPOhU4I-4" value="" style="endArrow=classic;html=1;rounded=0;entryX=0.75;entryY=0.05;entryDx=0;entryDy=0;exitX=0.5;exitY=1;exitDx=0;exitDy=0;entryPerimeter=0;" parent="1" source="WXA7mOeNSCQX8dPOhU4I-6" target="WXA7mOeNSCQX8dPOhU4I-47" edge="1">
          <mxGeometry width="50" height="50" relative="1" as="geometry">
            <mxPoint x="560" y="280" as="sourcePoint" />
            <mxPoint x="440" y="360" as="targetPoint" />
            <Array as="points">
              <mxPoint x="590" y="510" />
              <mxPoint x="450" y="510" />
            </Array>
          </mxGeometry>
        </mxCell>
        <mxCell id="WXA7mOeNSCQX8dPOhU4I-10" value="" style="swimlane;startSize=0;fillStyle=hatch;" parent="1" vertex="1">
          <mxGeometry x="490" y="50" width="200" height="230" as="geometry" />
        </mxCell>
        <mxCell id="WXA7mOeNSCQX8dPOhU4I-11" value="&lt;font style=&quot;font-size: 18px;&quot;&gt;Consumer&lt;/font&gt;" style="text;html=1;align=left;verticalAlign=middle;resizable=0;points=[];autosize=1;strokeColor=none;fillColor=none;" parent="WXA7mOeNSCQX8dPOhU4I-10" vertex="1">
          <mxGeometry x="10" y="3" width="110" height="40" as="geometry" />
        </mxCell>
        <mxCell id="WXA7mOeNSCQX8dPOhU4I-8" value="&amp;nbsp;&lt;span style=&quot;background-color: transparent; color: light-dark(rgb(0, 0, 0), rgb(255, 255, 255));&quot;&gt;Mobile App&lt;/span&gt;" style="ellipse;whiteSpace=wrap;html=1;fillColor=none;" parent="WXA7mOeNSCQX8dPOhU4I-10" vertex="1">
          <mxGeometry x="40" y="43" width="120" height="80" as="geometry" />
        </mxCell>
        <mxCell id="WXA7mOeNSCQX8dPOhU4I-6" value="REST API" style="ellipse;whiteSpace=wrap;html=1;fillColor=none;" parent="WXA7mOeNSCQX8dPOhU4I-10" vertex="1">
          <mxGeometry x="50" y="150" width="100" height="50" as="geometry" />
        </mxCell>
        <mxCell id="WXA7mOeNSCQX8dPOhU4I-9" value="" style="endArrow=classic;html=1;rounded=0;entryX=0.5;entryY=0;entryDx=0;entryDy=0;exitX=0.5;exitY=1;exitDx=0;exitDy=0;" parent="WXA7mOeNSCQX8dPOhU4I-10" source="WXA7mOeNSCQX8dPOhU4I-8" target="WXA7mOeNSCQX8dPOhU4I-6" edge="1">
          <mxGeometry width="50" height="50" relative="1" as="geometry">
            <mxPoint x="-60" y="170" as="sourcePoint" />
            <mxPoint x="-10" y="120" as="targetPoint" />
          </mxGeometry>
        </mxCell>
        <mxCell id="WXA7mOeNSCQX8dPOhU4I-20" value="" style="swimlane;startSize=0;fillStyle=solid;fillColor=none;strokeColor=default;" parent="1" vertex="1">
          <mxGeometry x="150" y="50" width="200" height="230" as="geometry" />
        </mxCell>
        <mxCell id="WXA7mOeNSCQX8dPOhU4I-21" value="&lt;font style=&quot;font-size: 18px;&quot;&gt;Authorities&lt;/font&gt;" style="text;html=1;align=left;verticalAlign=middle;resizable=0;points=[];autosize=1;fillColor=none;fontColor=default;strokeColor=none;fillStyle=hatch;" parent="WXA7mOeNSCQX8dPOhU4I-20" vertex="1">
          <mxGeometry x="10" y="3" width="110" height="40" as="geometry" />
        </mxCell>
        <mxCell id="WXA7mOeNSCQX8dPOhU4I-22" value="&lt;div&gt;&lt;span style=&quot;background-color: transparent; color: light-dark(rgb(0, 0, 0), rgb(255, 255, 255));&quot;&gt;Web App&lt;/span&gt;&lt;/div&gt;" style="ellipse;whiteSpace=wrap;html=1;fillColor=none;" parent="WXA7mOeNSCQX8dPOhU4I-20" vertex="1">
          <mxGeometry x="40" y="43" width="120" height="80" as="geometry" />
        </mxCell>
        <mxCell id="WXA7mOeNSCQX8dPOhU4I-23" value="REST API" style="ellipse;whiteSpace=wrap;html=1;fillColor=none;" parent="WXA7mOeNSCQX8dPOhU4I-20" vertex="1">
          <mxGeometry x="50" y="150" width="100" height="50" as="geometry" />
        </mxCell>
        <mxCell id="WXA7mOeNSCQX8dPOhU4I-24" value="" style="endArrow=classic;html=1;rounded=0;entryX=0.5;entryY=0;entryDx=0;entryDy=0;exitX=0.5;exitY=1;exitDx=0;exitDy=0;" parent="WXA7mOeNSCQX8dPOhU4I-20" source="WXA7mOeNSCQX8dPOhU4I-22" target="WXA7mOeNSCQX8dPOhU4I-23" edge="1">
          <mxGeometry width="50" height="50" relative="1" as="geometry">
            <mxPoint x="-60" y="170" as="sourcePoint" />
            <mxPoint x="-10" y="120" as="targetPoint" />
          </mxGeometry>
        </mxCell>
        <mxCell id="WXA7mOeNSCQX8dPOhU4I-25" value="" style="endArrow=classic;html=1;rounded=0;entryX=0.242;entryY=0.063;entryDx=0;entryDy=0;entryPerimeter=0;" parent="1" source="WXA7mOeNSCQX8dPOhU4I-23" target="WXA7mOeNSCQX8dPOhU4I-47" edge="1">
          <mxGeometry width="50" height="50" relative="1" as="geometry">
            <mxPoint x="710" y="470" as="sourcePoint" />
            <mxPoint x="760" y="420" as="targetPoint" />
            <Array as="points">
              <mxPoint x="250" y="510" />
              <mxPoint x="390" y="510" />
            </Array>
          </mxGeometry>
        </mxCell>
        <mxCell id="WXA7mOeNSCQX8dPOhU4I-36" value="" style="group;fillColor=none;fillStyle=hatch;" parent="1" vertex="1" connectable="0">
          <mxGeometry x="40" y="530" width="200" height="310" as="geometry" />
        </mxCell>
        <mxCell id="WXA7mOeNSCQX8dPOhU4I-27" value="" style="swimlane;startSize=0;fillStyle=hatch;container=0;" parent="WXA7mOeNSCQX8dPOhU4I-36" vertex="1">
          <mxGeometry y="-20" width="200" height="230" as="geometry" />
        </mxCell>
        <mxCell id="WXA7mOeNSCQX8dPOhU4I-28" value="&lt;font style=&quot;font-size: 18px;&quot;&gt;Authentication&lt;/font&gt;&lt;div&gt;&lt;span style=&quot;font-size: 18px;&quot;&gt;(Instance #1)&lt;/span&gt;&lt;/div&gt;" style="text;html=1;align=left;verticalAlign=middle;resizable=0;points=[];autosize=1;strokeColor=none;fillColor=none;" parent="WXA7mOeNSCQX8dPOhU4I-27" vertex="1">
          <mxGeometry x="10" y="3" width="140" height="60" as="geometry" />
        </mxCell>
        <mxCell id="WXA7mOeNSCQX8dPOhU4I-32" value="Mongo&lt;span style=&quot;background-color: transparent; color: light-dark(rgb(0, 0, 0), rgb(255, 255, 255));&quot;&gt;DB&lt;/span&gt;" style="shape=cylinder3;whiteSpace=wrap;html=1;boundedLbl=1;backgroundOutline=1;size=15;fillStyle=hatch;fillColor=none;" parent="WXA7mOeNSCQX8dPOhU4I-36" vertex="1">
          <mxGeometry x="70" y="230" width="60" height="80" as="geometry" />
        </mxCell>
        <mxCell id="WXA7mOeNSCQX8dPOhU4I-33" value="" style="endArrow=classic;html=1;rounded=0;exitX=0.5;exitY=1;exitDx=0;exitDy=0;entryX=0.5;entryY=0;entryDx=0;entryDy=0;entryPerimeter=0;" parent="WXA7mOeNSCQX8dPOhU4I-36" source="WXA7mOeNSCQX8dPOhU4I-30" target="WXA7mOeNSCQX8dPOhU4I-32" edge="1">
          <mxGeometry width="50" height="50" relative="1" as="geometry">
            <mxPoint x="680" y="-60" as="sourcePoint" />
            <mxPoint x="730" y="-110" as="targetPoint" />
          </mxGeometry>
        </mxCell>
        <mxCell id="WXA7mOeNSCQX8dPOhU4I-29" value="GraphQL API" style="ellipse;whiteSpace=wrap;html=1;fillColor=none;" parent="WXA7mOeNSCQX8dPOhU4I-36" vertex="1">
          <mxGeometry x="45" y="55" width="110" height="40" as="geometry" />
        </mxCell>
        <mxCell id="WXA7mOeNSCQX8dPOhU4I-30" value="Database Access Layer" style="ellipse;whiteSpace=wrap;html=1;fillColor=none;" parent="WXA7mOeNSCQX8dPOhU4I-36" vertex="1">
          <mxGeometry x="45" y="120" width="110" height="70" as="geometry" />
        </mxCell>
        <mxCell id="WXA7mOeNSCQX8dPOhU4I-31" value="" style="endArrow=classic;html=1;rounded=0;entryX=0.5;entryY=0;entryDx=0;entryDy=0;exitX=0.5;exitY=1;exitDx=0;exitDy=0;" parent="WXA7mOeNSCQX8dPOhU4I-36" source="WXA7mOeNSCQX8dPOhU4I-29" target="WXA7mOeNSCQX8dPOhU4I-30" edge="1">
          <mxGeometry width="50" height="50" relative="1" as="geometry">
            <mxPoint x="-60" y="150" as="sourcePoint" />
            <mxPoint x="-10" y="100" as="targetPoint" />
          </mxGeometry>
        </mxCell>
        <mxCell id="WXA7mOeNSCQX8dPOhU4I-45" value="" style="endArrow=classic;html=1;rounded=0;entryX=0.5;entryY=0;entryDx=0;entryDy=0;" parent="1" source="WXA7mOeNSCQX8dPOhU4I-23" target="WXA7mOeNSCQX8dPOhU4I-29" edge="1">
          <mxGeometry width="50" height="50" relative="1" as="geometry">
            <mxPoint x="80" y="405" as="sourcePoint" />
            <mxPoint x="760" y="320" as="targetPoint" />
            <Array as="points">
              <mxPoint x="140" y="225" />
            </Array>
          </mxGeometry>
        </mxCell>
        <mxCell id="qWOp4c1lzLREta1zWv9C-2" value="" style="group;fillColor=none;fillStyle=hatch;" parent="1" vertex="1" connectable="0">
          <mxGeometry x="600" y="530" width="200" height="310" as="geometry" />
        </mxCell>
        <mxCell id="qWOp4c1lzLREta1zWv9C-3" value="" style="swimlane;startSize=0;fillStyle=hatch;container=0;" parent="qWOp4c1lzLREta1zWv9C-2" vertex="1">
          <mxGeometry y="-20" width="200" height="230" as="geometry" />
        </mxCell>
        <mxCell id="qWOp4c1lzLREta1zWv9C-4" value="&lt;font style=&quot;font-size: 18px;&quot;&gt;Authentication&lt;/font&gt;&lt;div&gt;&lt;span style=&quot;font-size: 18px;&quot;&gt;(Instance #2)&lt;/span&gt;&lt;/div&gt;" style="text;html=1;align=left;verticalAlign=middle;resizable=0;points=[];autosize=1;strokeColor=none;fillColor=none;" parent="qWOp4c1lzLREta1zWv9C-3" vertex="1">
          <mxGeometry x="10" y="3" width="140" height="60" as="geometry" />
        </mxCell>
        <mxCell id="qWOp4c1lzLREta1zWv9C-5" value="MongoDB" style="shape=cylinder3;whiteSpace=wrap;html=1;boundedLbl=1;backgroundOutline=1;size=15;fillStyle=hatch;fillColor=none;" parent="qWOp4c1lzLREta1zWv9C-2" vertex="1">
          <mxGeometry x="70" y="230" width="60" height="80" as="geometry" />
        </mxCell>
        <mxCell id="qWOp4c1lzLREta1zWv9C-6" value="" style="endArrow=classic;html=1;rounded=0;exitX=0.5;exitY=1;exitDx=0;exitDy=0;entryX=0.5;entryY=0;entryDx=0;entryDy=0;entryPerimeter=0;" parent="qWOp4c1lzLREta1zWv9C-2" source="qWOp4c1lzLREta1zWv9C-8" target="qWOp4c1lzLREta1zWv9C-5" edge="1">
          <mxGeometry width="50" height="50" relative="1" as="geometry">
            <mxPoint x="680" y="-60" as="sourcePoint" />
            <mxPoint x="730" y="-110" as="targetPoint" />
          </mxGeometry>
        </mxCell>
        <mxCell id="qWOp4c1lzLREta1zWv9C-7" value="GraphQL API" style="ellipse;whiteSpace=wrap;html=1;fillColor=none;" parent="qWOp4c1lzLREta1zWv9C-2" vertex="1">
          <mxGeometry x="45" y="55" width="110" height="40" as="geometry" />
        </mxCell>
        <mxCell id="qWOp4c1lzLREta1zWv9C-8" value="Database Access Layer" style="ellipse;whiteSpace=wrap;html=1;fillColor=none;" parent="qWOp4c1lzLREta1zWv9C-2" vertex="1">
          <mxGeometry x="45" y="120" width="110" height="70" as="geometry" />
        </mxCell>
        <mxCell id="qWOp4c1lzLREta1zWv9C-9" value="" style="endArrow=classic;html=1;rounded=0;entryX=0.5;entryY=0;entryDx=0;entryDy=0;exitX=0.5;exitY=1;exitDx=0;exitDy=0;" parent="qWOp4c1lzLREta1zWv9C-2" source="qWOp4c1lzLREta1zWv9C-7" target="qWOp4c1lzLREta1zWv9C-8" edge="1">
          <mxGeometry width="50" height="50" relative="1" as="geometry">
            <mxPoint x="-60" y="150" as="sourcePoint" />
            <mxPoint x="-10" y="100" as="targetPoint" />
          </mxGeometry>
        </mxCell>
        <mxCell id="tI8AlF0LajUfXiurQ251-3" value="SQL&lt;div&gt;Database&lt;/div&gt;" style="shape=cylinder3;whiteSpace=wrap;html=1;boundedLbl=1;backgroundOutline=1;size=15;fillColor=none;" parent="1" vertex="1">
          <mxGeometry x="390" y="710" width="60" height="80" as="geometry" />
        </mxCell>
        <mxCell id="tI8AlF0LajUfXiurQ251-4" style="edgeStyle=orthogonalEdgeStyle;rounded=0;orthogonalLoop=1;jettySize=auto;html=1;entryX=0.5;entryY=0;entryDx=0;entryDy=0;entryPerimeter=0;" parent="1" source="WXA7mOeNSCQX8dPOhU4I-47" target="tI8AlF0LajUfXiurQ251-3" edge="1">
          <mxGeometry relative="1" as="geometry" />
        </mxCell>
        <mxCell id="tI8AlF0LajUfXiurQ251-5" value="" style="swimlane;startSize=0;align=left;fillStyle=hatch;" parent="1" vertex="1">
          <mxGeometry x="320" y="810" width="200" height="210" as="geometry" />
        </mxCell>
        <mxCell id="tI8AlF0LajUfXiurQ251-6" value="&lt;font&gt;Messaging service&lt;/font&gt;" style="text;html=1;align=left;verticalAlign=middle;resizable=0;points=[];autosize=1;strokeColor=none;fillColor=none;fontSize=18;" parent="tI8AlF0LajUfXiurQ251-5" vertex="1">
          <mxGeometry x="6" y="5" width="170" height="40" as="geometry" />
        </mxCell>
        <mxCell id="tI8AlF0LajUfXiurQ251-12" style="edgeStyle=orthogonalEdgeStyle;rounded=0;orthogonalLoop=1;jettySize=auto;html=1;" parent="tI8AlF0LajUfXiurQ251-5" source="tI8AlF0LajUfXiurQ251-7" target="tI8AlF0LajUfXiurQ251-10" edge="1">
          <mxGeometry relative="1" as="geometry" />
        </mxCell>
        <mxCell id="tI8AlF0LajUfXiurQ251-7" value="GraphQL&amp;nbsp;&lt;div&gt;Subscriber&lt;/div&gt;" style="ellipse;whiteSpace=wrap;html=1;fillColor=none;" parent="tI8AlF0LajUfXiurQ251-5" vertex="1">
          <mxGeometry x="40" y="45" width="120" height="80" as="geometry" />
        </mxCell>
        <mxCell id="tI8AlF0LajUfXiurQ251-10" value="Email Service" style="ellipse;whiteSpace=wrap;html=1;fillColor=none;" parent="tI8AlF0LajUfXiurQ251-5" vertex="1">
          <mxGeometry x="40" y="150" width="120" height="40" as="geometry" />
        </mxCell>
        <mxCell id="tI8AlF0LajUfXiurQ251-8" style="edgeStyle=orthogonalEdgeStyle;rounded=0;orthogonalLoop=1;jettySize=auto;html=1;entryX=0;entryY=0.5;entryDx=0;entryDy=0;" parent="1" source="tI8AlF0LajUfXiurQ251-7" target="qWOp4c1lzLREta1zWv9C-7" edge="1">
          <mxGeometry relative="1" as="geometry" />
        </mxCell>
        <mxCell id="tI8AlF0LajUfXiurQ251-9" style="edgeStyle=orthogonalEdgeStyle;rounded=0;orthogonalLoop=1;jettySize=auto;html=1;entryX=1;entryY=0.5;entryDx=0;entryDy=0;" parent="1" source="tI8AlF0LajUfXiurQ251-7" target="WXA7mOeNSCQX8dPOhU4I-29" edge="1">
          <mxGeometry relative="1" as="geometry" />
        </mxCell>
        <mxCell id="tI8AlF0LajUfXiurQ251-13" value="SMS service" style="sketch=0;pointerEvents=1;shadow=0;dashed=0;html=1;strokeColor=default;fillColor=none;labelPosition=center;verticalLabelPosition=bottom;outlineConnect=0;verticalAlign=top;align=center;shape=mxgraph.office.clouds.cloud;fillStyle=solid;" parent="1" vertex="1">
          <mxGeometry x="550" y="950" width="94" height="55" as="geometry" />
        </mxCell>
        <mxCell id="tI8AlF0LajUfXiurQ251-17" style="edgeStyle=orthogonalEdgeStyle;rounded=0;orthogonalLoop=1;jettySize=auto;html=1;exitX=1;exitY=1;exitDx=0;exitDy=0;" parent="1" source="tI8AlF0LajUfXiurQ251-7" target="tI8AlF0LajUfXiurQ251-13" edge="1">
          <mxGeometry relative="1" as="geometry" />
        </mxCell>
        <mxCell id="EVIIxS86ua2fa3mOsS9g-1" style="edgeStyle=orthogonalEdgeStyle;rounded=0;orthogonalLoop=1;jettySize=auto;html=1;entryX=0;entryY=0.5;entryDx=0;entryDy=0;" parent="1" source="WXA7mOeNSCQX8dPOhU4I-47" target="qWOp4c1lzLREta1zWv9C-7" edge="1">
          <mxGeometry relative="1" as="geometry">
            <Array as="points">
              <mxPoint x="645" y="620" />
            </Array>
          </mxGeometry>
        </mxCell>
        <mxCell id="bd-t9jaF1SbBqm57pMnH-1" value="" style="swimlane;startSize=0;fillStyle=hatch;" parent="1" vertex="1">
          <mxGeometry x="320" y="320" width="200" height="150" as="geometry" />
        </mxCell>
        <mxCell id="bd-t9jaF1SbBqm57pMnH-2" value="&lt;font style=&quot;font-size: 18px;&quot;&gt;Assistant&lt;/font&gt;" style="text;html=1;align=left;verticalAlign=middle;resizable=0;points=[];autosize=1;strokeColor=none;fillColor=none;" parent="bd-t9jaF1SbBqm57pMnH-1" vertex="1">
          <mxGeometry x="10" y="8" width="100" height="30" as="geometry" />
        </mxCell>
        <mxCell id="bd-t9jaF1SbBqm57pMnH-3" value="Assistant API" style="ellipse;whiteSpace=wrap;html=1;fillColor=none;" parent="bd-t9jaF1SbBqm57pMnH-1" vertex="1">
          <mxGeometry x="40" y="43" width="120" height="80" as="geometry" />
        </mxCell>
        <mxCell id="bd-t9jaF1SbBqm57pMnH-6" style="edgeStyle=orthogonalEdgeStyle;rounded=0;orthogonalLoop=1;jettySize=auto;html=1;exitX=0.5;exitY=1;exitDx=0;exitDy=0;entryX=0.5;entryY=0;entryDx=0;entryDy=0;" parent="1" source="bd-t9jaF1SbBqm57pMnH-3" target="WXA7mOeNSCQX8dPOhU4I-47" edge="1">
          <mxGeometry relative="1" as="geometry" />
        </mxCell>
        <mxCell id="bd-t9jaF1SbBqm57pMnH-7" style="edgeStyle=orthogonalEdgeStyle;rounded=0;orthogonalLoop=1;jettySize=auto;html=1;exitX=0;exitY=0.5;exitDx=0;exitDy=0;entryX=0.5;entryY=0;entryDx=0;entryDy=0;" parent="1" source="WXA7mOeNSCQX8dPOhU4I-6" target="bd-t9jaF1SbBqm57pMnH-3" edge="1">
          <mxGeometry relative="1" as="geometry" />
        </mxCell>
      </root>
    </mxGraphModel>
  </diagram>
</mxfile>
